<?xml version="1.0" standalone="no"?>
<!DOCTYPE svg PUBLIC "-//W3C//DTD SVG 20010904//EN"
 "http://www.w3.org/TR/2001/REC-SVG-20010904/DTD/svg10.dtd">
<svg version="1.0" xmlns="http://www.w3.org/2000/svg"
 width="50.000000pt" height="50.000000pt" viewBox="0 0 50.000000 50.000000"
 preserveAspectRatio="xMidYMid meet">

<g transform="translate(0.000000,50.000000) scale(0.100000,-0.100000)"
fill="#000000" stroke="none">
<path d="M251 393 c0 -17 -5 -35 -11 -38 -5 -3 -10 -13 -10 -21 0 -9 -16 -30
-35 -48 -37 -35 -45 -63 -20 -72 20 -8 19 -33 -2 -58 -17 -20 -17 -20 0 -7 17
13 18 12 12 -12 -10 -37 17 -37 34 0 10 23 10 25 -2 14 -13 -10 -15 -6 -15 24
0 38 8 44 28 20 16 -19 34 -19 50 -1 6 8 23 16 38 18 40 5 39 34 -2 73 -20 18
-36 40 -36 47 0 8 -4 18 -9 24 -5 5 -11 23 -14 39 l-4 30 -2 -32z m19 -63 c0
-11 -4 -20 -10 -20 -5 0 -10 9 -10 20 0 11 5 20 10 20 6 0 10 -9 10 -20z m45
-55 c43 -42 34 -55 -37 -55 -35 0 -70 5 -78 10 -12 8 -12 10 -1 10 8 0 12 3 8
6 -3 4 2 14 11 23 11 10 12 12 2 6 -13 -9 -13 -8 -1 8 20 25 67 21 96 -8z
m-40 -75 c-3 -5 -13 -10 -21 -10 -8 0 -12 5 -9 10 3 6 13 10 21 10 8 0 12 -4
9 -10z"/>
<path d="M158 193 c7 -3 16 -2 19 1 4 3 -2 6 -13 5 -11 0 -14 -3 -6 -6z"/>
<path d="M338 193 c7 -3 16 -2 19 1 4 3 -2 6 -13 5 -11 0 -14 -3 -6 -6z"/>
<path d="M325 160 c10 -11 20 -20 23 -20 3 0 -3 9 -13 20 -10 11 -20 20 -23
20 -3 0 3 -9 13 -20z"/>
<path d="M286 147 c3 -10 9 -15 12 -12 3 3 0 11 -7 18 -10 9 -11 8 -5 -6z"/>
</g>
</svg>
